<mxfile host="65bd71144e" modified="2021-02-02T07:11:21.358Z" agent="5.0 (Macintosh; Intel Mac OS X 11_0_0) AppleWebKit/537.36 (KHTML, like Gecko) Code/1.52.1 Chrome/83.0.4103.122 Electron/9.3.5 Safari/537.36" version="13.10.0" etag="LtXtNw8D5SFD5lHbmvVs" type="embed">
    <diagram id="b9aCJmOfcIy7BjycDoow" name="Page-1">
        <mxGraphModel dx="2145" dy="2322" grid="1" gridSize="10" guides="1" tooltips="1" connect="1" arrows="1" fold="1" page="1" pageScale="1" pageWidth="827" pageHeight="1169" background="#ffffff" math="0" shadow="0">
            <root>
                <mxCell id="0"/>
                <mxCell id="1" parent="0"/>
                <mxCell id="28" value="Network&lt;br style=&quot;font-size: 8px&quot;&gt;&lt;font size=&quot;1&quot;&gt;Technical infrastructure that provides ledger and smart contract services to applications&lt;/font&gt;" style="whiteSpace=wrap;html=1;verticalAlign=top;align=left;" vertex="1" parent="1">
                    <mxGeometry x="-50" y="-1150" width="1220" height="1530" as="geometry"/>
                </mxCell>
                <mxCell id="12" value="Channel 1&lt;br style=&quot;font-size: 8px&quot;&gt;&lt;font size=&quot;1&quot;&gt;Private blockchain overlay which provides data isolation and confidentiality&lt;br&gt;Provides private data and communications mechanism for Organization 1 + 2&lt;br&gt;&lt;/font&gt;" style="whiteSpace=wrap;html=1;verticalAlign=top;align=left;" vertex="1" parent="1">
                    <mxGeometry x="-30" y="-990" width="830" height="820" as="geometry"/>
                </mxCell>
                <mxCell id="6" value="Peer 1&lt;br style=&quot;font-size: 8px&quot;&gt;&lt;font size=&quot;1&quot;&gt;Network entity that hosts a copy of a ledger and runs chaincode containers to perform read/write operations to the ledger.&lt;/font&gt;" style="whiteSpace=wrap;html=1;align=left;verticalAlign=top;" vertex="1" parent="1">
                    <mxGeometry y="-930" width="570" height="550" as="geometry"/>
                </mxCell>
                <mxCell id="110" value="Chaincode" style="rounded=0;whiteSpace=wrap;html=1;fontColor=none;verticalAlign=top;" vertex="1" parent="1">
                    <mxGeometry x="270" y="-880" width="240" height="430" as="geometry"/>
                </mxCell>
                <mxCell id="31" value="Organization 4&lt;br style=&quot;font-size: 10px&quot;&gt;&lt;font style=&quot;font-size: 10px&quot;&gt;Logical managed group of members&lt;br&gt;Has admin rights over the network&lt;br&gt;&lt;/font&gt;&lt;font size=&quot;1&quot;&gt;Does not participate in business transactions&lt;/font&gt;" style="whiteSpace=wrap;html=1;align=right;verticalAlign=bottom;opacity=50;fillColor=#B266FF;strokeColor=#B266FF;" vertex="1" parent="1">
                    <mxGeometry x="830" y="-520" width="770" height="150" as="geometry"/>
                </mxCell>
                <mxCell id="95" value="&lt;font&gt;&lt;br&gt;&lt;/font&gt;" style="whiteSpace=wrap;html=1;align=center;" vertex="1" parent="1">
                    <mxGeometry x="1350" y="-500" width="110" height="60" as="geometry"/>
                </mxCell>
                <mxCell id="16" value="Channel 2" style="whiteSpace=wrap;html=1;verticalAlign=top;align=left;" vertex="1" parent="1">
                    <mxGeometry x="230" y="-140" width="570" height="450" as="geometry"/>
                </mxCell>
                <mxCell id="41" value="Peer 3" style="whiteSpace=wrap;html=1;align=left;verticalAlign=top;opacity=50;" vertex="1" parent="1">
                    <mxGeometry x="250" y="-110" width="310" height="390" as="geometry"/>
                </mxCell>
                <mxCell id="35" value="Organization 3" style="whiteSpace=wrap;html=1;align=right;verticalAlign=bottom;opacity=50;strokeColor=#66FF66;fillColor=#66FF66;" vertex="1" parent="1">
                    <mxGeometry x="620" y="60" width="290" height="100" as="geometry"/>
                </mxCell>
                <mxCell id="22" value="Organization 1&lt;br style=&quot;font-size: 10px&quot;&gt;&lt;font size=&quot;1&quot;&gt;Has administrative rights over the network&lt;/font&gt;" style="whiteSpace=wrap;html=1;align=right;verticalAlign=bottom;opacity=50;strokeColor=#3333FF;fillColor=#3333FF;" vertex="1" parent="1">
                    <mxGeometry x="610" y="-490" width="700" height="220" as="geometry"/>
                </mxCell>
                <mxCell id="25" value="Organization 2" style="whiteSpace=wrap;html=1;align=right;verticalAlign=bottom;opacity=50;strokeColor=#66FFFF;fillColor=#33FFFF;" vertex="1" parent="1">
                    <mxGeometry x="620" y="-350" width="290" height="300" as="geometry"/>
                </mxCell>
                <mxCell id="9" value="Peer 2" style="whiteSpace=wrap;html=1;align=left;verticalAlign=top;opacity=50;" vertex="1" parent="1">
                    <mxGeometry x="300" y="-330" width="270" height="410" as="geometry"/>
                </mxCell>
                <mxCell id="3" value="Ledger 1&lt;br style=&quot;font-size: 8px&quot;&gt;&lt;font style=&quot;font-size: 10px&quot;&gt;&lt;span&gt;Consists of a blockchain and a state database (world state)&lt;/span&gt;&lt;br&gt;&lt;font style=&quot;font-size: 10px&quot;&gt;Immutable. Logically hosted on channel. One instance per channel.&lt;/font&gt;&lt;/font&gt;" style="whiteSpace=wrap;html=1;verticalAlign=top;" vertex="1" parent="1">
                    <mxGeometry x="20" y="-680" width="230" height="250" as="geometry"/>
                </mxCell>
                <mxCell id="4" value="Smart Contract 1.1&lt;br style=&quot;font-size: 10px&quot;&gt;&lt;font size=&quot;1&quot;&gt;Code created by org developers that manages access and modifications to key-value pairs in the world state via transactions. Must be installed on peer and defined on channel. Packaged in chaincode. Each smart contract has its own namespace in the world state DB.&lt;br&gt;Smart contracts are packaged in a chaincode&lt;br&gt;&lt;/font&gt;" style="whiteSpace=wrap;html=1;" vertex="1" parent="1">
                    <mxGeometry x="280" y="-680" width="140" height="220" as="geometry"/>
                </mxCell>
                <mxCell id="7" value="Application 1" style="whiteSpace=wrap;html=1;" vertex="1" parent="1">
                    <mxGeometry x="-730" y="-615" width="120" height="95" as="geometry"/>
                </mxCell>
                <mxCell id="10" value="Ledger 1&lt;br style=&quot;font-size: 10px&quot;&gt;&lt;font size=&quot;1&quot;&gt;Instance of ledger 1 synced with peer 1&lt;/font&gt;" style="whiteSpace=wrap;html=1;aspect=fixed;" vertex="1" parent="1">
                    <mxGeometry x="310" y="-300" width="110" height="110" as="geometry"/>
                </mxCell>
                <mxCell id="11" value="Smart Contract 1.1&lt;br style=&quot;font-size: 10px&quot;&gt;&lt;font size=&quot;1&quot;&gt;Instance of smart contract 1.1 synced with peer 1&lt;/font&gt;" style="whiteSpace=wrap;html=1;" vertex="1" parent="1">
                    <mxGeometry x="440" y="-320" width="100" height="80" as="geometry"/>
                </mxCell>
                <mxCell id="13" value="" style="endArrow=classic;html=1;exitX=1;exitY=0.25;exitDx=0;exitDy=0;strokeColor=#001DBC;fillColor=#0050ef;fontColor=#001DBC;entryX=0.001;entryY=0.451;entryDx=0;entryDy=0;entryPerimeter=0;" edge="1" parent="1" source="7" target="6">
                    <mxGeometry width="50" height="50" relative="1" as="geometry">
                        <mxPoint x="160" y="-390" as="sourcePoint"/>
                        <mxPoint x="210" y="-440" as="targetPoint"/>
                    </mxGeometry>
                </mxCell>
                <mxCell id="74" value="1. Connect to peer via SDK" style="edgeLabel;html=1;align=center;verticalAlign=middle;resizable=0;points=[];fontColor=#001DBC;" vertex="1" connectable="0" parent="13">
                    <mxGeometry x="-0.7462" y="1" relative="1" as="geometry">
                        <mxPoint x="133.27" y="-25.67" as="offset"/>
                    </mxGeometry>
                </mxCell>
                <mxCell id="14" value="Ledger 2" style="whiteSpace=wrap;html=1;aspect=fixed;" vertex="1" parent="1">
                    <mxGeometry x="310" y="-100" width="110" height="110" as="geometry"/>
                </mxCell>
                <mxCell id="15" value="Smart Contract 2" style="whiteSpace=wrap;html=1;aspect=fixed;" vertex="1" parent="1">
                    <mxGeometry x="440" y="-100" width="110" height="110" as="geometry"/>
                </mxCell>
                <mxCell id="17" value="Application 2" style="whiteSpace=wrap;html=1;" vertex="1" parent="1">
                    <mxGeometry x="-500" y="-166" width="120" height="60" as="geometry"/>
                </mxCell>
                <mxCell id="18" value="" style="endArrow=classic;html=1;" edge="1" parent="1" source="17" target="12">
                    <mxGeometry width="50" height="50" relative="1" as="geometry">
                        <mxPoint x="170" y="-320" as="sourcePoint"/>
                        <mxPoint x="220" y="-370" as="targetPoint"/>
                    </mxGeometry>
                </mxCell>
                <mxCell id="19" value="" style="endArrow=classic;html=1;" edge="1" parent="1" source="17" target="16">
                    <mxGeometry width="50" height="50" relative="1" as="geometry">
                        <mxPoint x="137.33333333333326" y="-280" as="sourcePoint"/>
                        <mxPoint x="240" y="-345.07042253521126" as="targetPoint"/>
                    </mxGeometry>
                </mxCell>
                <mxCell id="20" value="Channel Configuration 1&lt;br style=&quot;font-size: 10px&quot;&gt;&lt;font size=&quot;1&quot;&gt;Governs the channel&lt;br&gt;Contains MSP configuration&lt;br&gt;&lt;/font&gt;" style="whiteSpace=wrap;html=1;align=center;" vertex="1" parent="1">
                    <mxGeometry x="630" y="-340" width="150" height="60" as="geometry"/>
                </mxCell>
                <mxCell id="21" value="Channel Configuration 2" style="whiteSpace=wrap;html=1;align=center;" vertex="1" parent="1">
                    <mxGeometry x="630" y="-130" width="150" height="60" as="geometry"/>
                </mxCell>
                <mxCell id="23" value="Certificate Authority 1" style="whiteSpace=wrap;html=1;align=center;" vertex="1" parent="1">
                    <mxGeometry x="1400" y="-350" width="120" height="60" as="geometry"/>
                </mxCell>
                <mxCell id="24" value="" style="endArrow=classic;html=1;" edge="1" parent="1" source="23" target="22">
                    <mxGeometry width="50" height="50" relative="1" as="geometry">
                        <mxPoint x="1030" y="-300" as="sourcePoint"/>
                        <mxPoint x="1080" y="-350" as="targetPoint"/>
                    </mxGeometry>
                </mxCell>
                <mxCell id="26" value="Certificate Authority 2" style="whiteSpace=wrap;html=1;align=center;" vertex="1" parent="1">
                    <mxGeometry x="1210" y="-230" width="120" height="60" as="geometry"/>
                </mxCell>
                <mxCell id="27" value="" style="endArrow=classic;html=1;" edge="1" parent="1" source="26" target="25">
                    <mxGeometry width="50" height="50" relative="1" as="geometry">
                        <mxPoint x="880" y="30" as="sourcePoint"/>
                        <mxPoint x="930" y="-20" as="targetPoint"/>
                    </mxGeometry>
                </mxCell>
                <mxCell id="29" value="Network Configuration 4&lt;br style=&quot;font-size: 8px&quot;&gt;&lt;font size=&quot;1&quot;&gt;Defines consortiuma and network policies&lt;br&gt;Controlled by Org 1 + 4&lt;br&gt;Policies includes MSP&lt;br&gt;&lt;/font&gt;" style="whiteSpace=wrap;html=1;align=center;" vertex="1" parent="1">
                    <mxGeometry x="965" y="-480" width="120" height="100" as="geometry"/>
                </mxCell>
                <mxCell id="32" value="System Channel&lt;br style=&quot;font-size: 10px&quot;&gt;&lt;font size=&quot;1&quot;&gt;Contains configuration blocks defining the network at a system level (blockchain structure).&lt;br&gt;Contains consortium membership and channel create permissions&lt;br&gt;&lt;br&gt;&lt;/font&gt;" style="whiteSpace=wrap;html=1;align=center;verticalAlign=bottom;" vertex="1" parent="1">
                    <mxGeometry x="927.5" y="-1070" width="195" height="180" as="geometry"/>
                </mxCell>
                <mxCell id="33" value="" style="endArrow=classic;html=1;" edge="1" parent="1" source="30" target="32">
                    <mxGeometry width="50" height="50" relative="1" as="geometry">
                        <mxPoint x="1230" y="-660" as="sourcePoint"/>
                        <mxPoint x="1280" y="-710" as="targetPoint"/>
                    </mxGeometry>
                </mxCell>
                <mxCell id="34" value="Channel Configuration 3" style="whiteSpace=wrap;html=1;align=center;" vertex="1" parent="1">
                    <mxGeometry x="630" y="75" width="150" height="60" as="geometry"/>
                </mxCell>
                <mxCell id="37" value="Certificate Authority 3" style="whiteSpace=wrap;html=1;align=center;" vertex="1" parent="1">
                    <mxGeometry x="1210" y="80" width="120" height="60" as="geometry"/>
                </mxCell>
                <mxCell id="38" value="" style="endArrow=classic;html=1;" edge="1" parent="1" source="37" target="35">
                    <mxGeometry width="50" height="50" relative="1" as="geometry">
                        <mxPoint x="1110" y="20" as="sourcePoint"/>
                        <mxPoint x="1160" y="-30" as="targetPoint"/>
                    </mxGeometry>
                </mxCell>
                <mxCell id="39" value="Certificate Authority 4&lt;br style=&quot;font-size: 8px&quot;&gt;&lt;div&gt;&lt;span style=&quot;font-size: x-small&quot;&gt;PKI (Public Key Infrastructure)-based certificate used to idenfity users and sign transactions&lt;/span&gt;&lt;/div&gt;&lt;div style=&quot;text-align: left&quot;&gt;&lt;span style=&quot;font-size: x-small&quot;&gt;&lt;br&gt;&lt;/span&gt;&lt;/div&gt;&lt;div style=&quot;text-align: left&quot;&gt;&lt;span style=&quot;font-size: x-small&quot;&gt;PKis are comprised of:&lt;/span&gt;&lt;/div&gt;&lt;div style=&quot;text-align: left&quot;&gt;&lt;ul&gt;&lt;li&gt;&lt;span style=&quot;font-size: x-small&quot;&gt;Digital certificates&lt;/span&gt;&lt;/li&gt;&lt;li&gt;&lt;span style=&quot;font-size: x-small&quot;&gt;Public and private keys&lt;/span&gt;&lt;/li&gt;&lt;li&gt;&lt;span style=&quot;font-size: x-small&quot;&gt;Certificate Authorities&lt;/span&gt;&lt;/li&gt;&lt;li&gt;&lt;span style=&quot;font-size: x-small&quot;&gt;Certificate Revocation List&lt;/span&gt;&lt;/li&gt;&lt;/ul&gt;&lt;/div&gt;" style="whiteSpace=wrap;html=1;align=center;" vertex="1" parent="1">
                    <mxGeometry x="1660" y="-557.5" width="230" height="205" as="geometry"/>
                </mxCell>
                <mxCell id="40" value="" style="endArrow=classic;html=1;" edge="1" parent="1" source="39" target="31">
                    <mxGeometry width="50" height="50" relative="1" as="geometry">
                        <mxPoint x="1220" y="-370" as="sourcePoint"/>
                        <mxPoint x="1270" y="-420" as="targetPoint"/>
                    </mxGeometry>
                </mxCell>
                <mxCell id="45" value="Membership Service Provider&lt;br style=&quot;font-size: 8px&quot;&gt;&lt;font size=&quot;1&quot;&gt;Set of folders. Provides credentials to clients and peers to participate in the network.&lt;br&gt;Turn verifiable IDs into members of a blockchain. Turn IDs into roles.&lt;br&gt;Provides members with a set of roles and permissions.&lt;br&gt;&lt;/font&gt;" style="whiteSpace=wrap;html=1;align=center;" vertex="1" parent="1">
                    <mxGeometry x="925" y="-120" width="200" height="150" as="geometry"/>
                </mxCell>
                <mxCell id="46" value="" style="endArrow=classic;html=1;" edge="1" parent="1" source="45" target="29">
                    <mxGeometry width="50" height="50" relative="1" as="geometry">
                        <mxPoint x="1100" y="-620" as="sourcePoint"/>
                        <mxPoint x="1150" y="-670" as="targetPoint"/>
                    </mxGeometry>
                </mxCell>
                <mxCell id="47" value="" style="endArrow=classic;html=1;fontColor=#001DBC;strokeColor=#001DBC;fillColor=#0050ef;dashed=1;" edge="1" parent="1" source="30" target="6">
                    <mxGeometry width="50" height="50" relative="1" as="geometry">
                        <mxPoint x="840" y="-500" as="sourcePoint"/>
                        <mxPoint x="890" y="-550" as="targetPoint"/>
                    </mxGeometry>
                </mxCell>
                <mxCell id="50" value="4.1 Transactions sent &lt;br&gt;to peers in blocks" style="edgeLabel;html=1;align=center;verticalAlign=middle;resizable=0;points=[];fontColor=#001DBC;" vertex="1" connectable="0" parent="47">
                    <mxGeometry x="-0.1679" y="3" relative="1" as="geometry">
                        <mxPoint x="77.44" y="-18.71" as="offset"/>
                    </mxGeometry>
                </mxCell>
                <mxCell id="49" value="" style="whiteSpace=wrap;html=1;align=center;" vertex="1" parent="1">
                    <mxGeometry x="960" y="-790" width="150" height="190" as="geometry"/>
                </mxCell>
                <mxCell id="30" value="Ordering Service 4&lt;br style=&quot;font-size: 8px&quot;&gt;&lt;font size=&quot;1&quot;&gt;Administration point.&amp;nbsp;&lt;/font&gt;&lt;span style=&quot;font-size: x-small&quot;&gt;Can be connected to other orderers.&lt;/span&gt;&lt;font size=&quot;1&quot;&gt;&lt;br&gt;Also distribution point for transactions (orders transactions into transaction blocks and distribute them to peers).&lt;br&gt;&lt;/font&gt;" style="whiteSpace=wrap;html=1;align=center;" vertex="1" parent="1">
                    <mxGeometry x="950" y="-800" width="150" height="190" as="geometry"/>
                </mxCell>
                <mxCell id="48" value="" style="endArrow=classic;html=1;" edge="1" parent="1" source="30" target="16">
                    <mxGeometry width="50" height="50" relative="1" as="geometry">
                        <mxPoint x="870" y="-576.2962962962963" as="sourcePoint"/>
                        <mxPoint x="810" y="-552.5925925925926" as="targetPoint"/>
                    </mxGeometry>
                </mxCell>
                <mxCell id="51" value="Transaction&lt;br&gt;ordering" style="edgeLabel;html=1;align=center;verticalAlign=middle;resizable=0;points=[];" vertex="1" connectable="0" parent="48">
                    <mxGeometry x="-0.7281" relative="1" as="geometry">
                        <mxPoint y="-1" as="offset"/>
                    </mxGeometry>
                </mxCell>
                <mxCell id="44" value="" style="endArrow=classic;html=1;" edge="1" parent="1" source="29" target="30">
                    <mxGeometry width="50" height="50" relative="1" as="geometry">
                        <mxPoint x="1140" y="-60" as="sourcePoint"/>
                        <mxPoint x="1190" y="-110" as="targetPoint"/>
                    </mxGeometry>
                </mxCell>
                <mxCell id="53" value="Application 3" style="whiteSpace=wrap;html=1;" vertex="1" parent="1">
                    <mxGeometry x="-500" y="69" width="120" height="60" as="geometry"/>
                </mxCell>
                <mxCell id="54" value="" style="endArrow=classic;html=1;" edge="1" parent="1" source="53" target="16">
                    <mxGeometry width="50" height="50" relative="1" as="geometry">
                        <mxPoint x="140" y="89.65517241379303" as="sourcePoint"/>
                        <mxPoint x="160" y="-30" as="targetPoint"/>
                    </mxGeometry>
                </mxCell>
                <mxCell id="55" value="" style="endArrow=classic;startArrow=classic;html=1;" edge="1" parent="1" source="9" target="12">
                    <mxGeometry width="50" height="50" relative="1" as="geometry">
                        <mxPoint x="100" y="-380" as="sourcePoint"/>
                        <mxPoint x="150" y="-430" as="targetPoint"/>
                    </mxGeometry>
                </mxCell>
                <mxCell id="56" value="Gossip protocol" style="edgeLabel;html=1;align=center;verticalAlign=middle;resizable=0;points=[];" vertex="1" connectable="0" parent="55">
                    <mxGeometry x="0.0944" y="-1" relative="1" as="geometry">
                        <mxPoint as="offset"/>
                    </mxGeometry>
                </mxCell>
                <mxCell id="57" value="Consortiums&lt;br style=&quot;font-size: 10px&quot;&gt;&lt;font size=&quot;1&quot;&gt;Orgs that need to transact&lt;/font&gt;" style="whiteSpace=wrap;html=1;align=center;strokeColor=none;" vertex="1" parent="1">
                    <mxGeometry x="1190" y="-820" width="120" height="60" as="geometry"/>
                </mxCell>
                <mxCell id="69" value="Ledger 2" style="whiteSpace=wrap;html=1;aspect=fixed;" vertex="1" parent="1">
                    <mxGeometry x="310" y="100" width="110" height="110" as="geometry"/>
                </mxCell>
                <mxCell id="70" value="Smart Contract 2" style="whiteSpace=wrap;html=1;aspect=fixed;" vertex="1" parent="1">
                    <mxGeometry x="440" y="100" width="110" height="110" as="geometry"/>
                </mxCell>
                <mxCell id="76" value="" style="endArrow=classic;html=1;exitX=1;exitY=0.5;exitDx=0;exitDy=0;strokeColor=#001DBC;fontColor=#001DBC;fillColor=#0050ef;" edge="1" parent="1" source="7" target="6">
                    <mxGeometry width="50" height="50" relative="1" as="geometry">
                        <mxPoint x="-110" y="-460" as="sourcePoint"/>
                        <mxPoint x="240" y="-443.46456692913375" as="targetPoint"/>
                    </mxGeometry>
                </mxCell>
                <mxCell id="77" value="2. Invoke chaincode (proposal)" style="edgeLabel;html=1;align=center;verticalAlign=middle;resizable=0;points=[];fontColor=#001DBC;" vertex="1" connectable="0" parent="76">
                    <mxGeometry x="-0.7462" y="1" relative="1" as="geometry">
                        <mxPoint x="282.17" y="-34.97" as="offset"/>
                    </mxGeometry>
                </mxCell>
                <mxCell id="78" value="" style="endArrow=classic;html=1;entryX=0.994;entryY=0.604;entryDx=0;entryDy=0;strokeColor=#001DBC;fillColor=#0050ef;fontColor=#001DBC;curved=1;entryPerimeter=0;" edge="1" parent="1" source="3" target="7">
                    <mxGeometry width="50" height="50" relative="1" as="geometry">
                        <mxPoint x="-170" y="-321.2" as="sourcePoint"/>
                        <mxPoint x="181.71000000000004" y="-318.8099999999999" as="targetPoint"/>
                    </mxGeometry>
                </mxCell>
                <mxCell id="79" value="3. Proposal response" style="edgeLabel;html=1;align=center;verticalAlign=middle;resizable=0;points=[];fontColor=#001DBC;" vertex="1" connectable="0" parent="78">
                    <mxGeometry x="-0.7462" y="1" relative="1" as="geometry">
                        <mxPoint x="-174.38" y="0.35" as="offset"/>
                    </mxGeometry>
                </mxCell>
                <mxCell id="80" value="2.1. Peer invokes chaincode with proposal" style="endArrow=classic;html=1;exitX=0.5;exitY=0;exitDx=0;exitDy=0;curved=1;fontColor=#001DBC;strokeColor=#001DBC;fillColor=#0050ef;" edge="1" parent="1" source="3" target="110">
                    <mxGeometry x="-0.1606" y="-21" width="50" height="50" relative="1" as="geometry">
                        <mxPoint x="30" y="-650" as="sourcePoint"/>
                        <mxPoint x="80" y="-700" as="targetPoint"/>
                        <Array as="points">
                            <mxPoint x="200" y="-730"/>
                        </Array>
                        <mxPoint x="-1" as="offset"/>
                    </mxGeometry>
                </mxCell>
                <mxCell id="81" value="2.2. Chaincode generates&lt;br&gt;query or update proposal&lt;br&gt;response" style="endArrow=classic;html=1;entryX=0.5;entryY=1;entryDx=0;entryDy=0;exitX=0.5;exitY=1;exitDx=0;exitDy=0;curved=1;fontColor=#001DBC;strokeColor=#001DBC;fillColor=#0050ef;" edge="1" parent="1" source="4" target="3">
                    <mxGeometry x="0.1555" y="-3" width="50" height="50" relative="1" as="geometry">
                        <mxPoint x="375" y="-580" as="sourcePoint"/>
                        <mxPoint x="505" y="-580" as="targetPoint"/>
                        <Array as="points">
                            <mxPoint x="260" y="-390"/>
                        </Array>
                        <mxPoint as="offset"/>
                    </mxGeometry>
                </mxCell>
                <mxCell id="82" value="4. Build a transaction from all responses and &lt;br&gt;request that transaction is ordered" style="endArrow=classic;html=1;exitX=0.5;exitY=0;exitDx=0;exitDy=0;curved=1;fillColor=#0050ef;strokeColor=#001DBC;fontColor=#001DBC;" edge="1" parent="1" source="7" target="30">
                    <mxGeometry x="0.2707" y="-9" width="50" height="50" relative="1" as="geometry">
                        <mxPoint x="505" y="-450" as="sourcePoint"/>
                        <mxPoint x="375" y="-470" as="targetPoint"/>
                        <Array as="points">
                            <mxPoint x="-50" y="-1120"/>
                            <mxPoint x="850" y="-1070"/>
                            <mxPoint x="890" y="-910"/>
                        </Array>
                        <mxPoint as="offset"/>
                    </mxGeometry>
                </mxCell>
                <mxCell id="84" value="&lt;font&gt;&lt;font style=&quot;font-size: 12px&quot;&gt;MSP&lt;/font&gt;&lt;br&gt;&lt;/font&gt;" style="whiteSpace=wrap;html=1;align=center;" vertex="1" parent="1">
                    <mxGeometry x="1510" y="-510" width="70" height="40" as="geometry"/>
                </mxCell>
                <mxCell id="85" value="&lt;font style=&quot;font-size: 10px&quot;&gt;&lt;font style=&quot;font-size: 10px&quot;&gt;MSP&lt;br&gt;&lt;/font&gt;Contains MSPs for all organizations&lt;br&gt;&lt;/font&gt;" style="whiteSpace=wrap;html=1;align=center;" vertex="1" parent="1">
                    <mxGeometry x="1010" y="-1060" width="100" height="60" as="geometry"/>
                </mxCell>
                <mxCell id="86" value="&lt;font&gt;&lt;font style=&quot;font-size: 12px&quot;&gt;MSP&lt;/font&gt;&lt;br&gt;&lt;/font&gt;" style="whiteSpace=wrap;html=1;align=center;" vertex="1" parent="1">
                    <mxGeometry x="1015" y="-790" width="70" height="30" as="geometry"/>
                </mxCell>
                <mxCell id="87" value="&lt;font&gt;&lt;font style=&quot;font-size: 12px&quot;&gt;MSP&lt;/font&gt;&lt;br&gt;&lt;/font&gt;" style="whiteSpace=wrap;html=1;align=center;" vertex="1" parent="1">
                    <mxGeometry x="1220" y="-480" width="70" height="40" as="geometry"/>
                </mxCell>
                <mxCell id="88" value="&lt;font&gt;&lt;font style=&quot;font-size: 12px&quot;&gt;MSP&lt;/font&gt;&lt;br&gt;&lt;/font&gt;" style="whiteSpace=wrap;html=1;align=center;" vertex="1" parent="1">
                    <mxGeometry x="830" y="-250" width="70" height="40" as="geometry"/>
                </mxCell>
                <mxCell id="89" value="&lt;font&gt;&lt;font style=&quot;font-size: 12px&quot;&gt;MSP&lt;/font&gt;&lt;br&gt;&lt;/font&gt;" style="whiteSpace=wrap;html=1;align=center;" vertex="1" parent="1">
                    <mxGeometry x="827" y="75" width="70" height="40" as="geometry"/>
                </mxCell>
                <mxCell id="90" value="&lt;font&gt;&lt;font style=&quot;font-size: 12px&quot;&gt;MSP&lt;/font&gt;&lt;br&gt;&lt;/font&gt;" style="whiteSpace=wrap;html=1;align=center;" vertex="1" parent="1">
                    <mxGeometry x="710" y="-930" width="70" height="40" as="geometry"/>
                </mxCell>
                <mxCell id="91" value="&lt;font&gt;&lt;font style=&quot;font-size: 12px&quot;&gt;MSP&lt;/font&gt;&lt;br&gt;&lt;/font&gt;" style="whiteSpace=wrap;html=1;align=center;" vertex="1" parent="1">
                    <mxGeometry x="440" y="-430" width="70" height="40" as="geometry"/>
                </mxCell>
                <mxCell id="92" value="&lt;font&gt;&lt;font style=&quot;font-size: 12px&quot;&gt;MSP&lt;/font&gt;&lt;br&gt;&lt;/font&gt;" style="whiteSpace=wrap;html=1;align=center;" vertex="1" parent="1">
                    <mxGeometry x="480" y="30" width="70" height="40" as="geometry"/>
                </mxCell>
                <mxCell id="93" value="&lt;font&gt;&lt;font style=&quot;font-size: 12px&quot;&gt;MSP&lt;/font&gt;&lt;br&gt;&lt;/font&gt;" style="whiteSpace=wrap;html=1;align=center;" vertex="1" parent="1">
                    <mxGeometry x="480" y="230" width="70" height="40" as="geometry"/>
                </mxCell>
                <mxCell id="94" value="&lt;font&gt;Organization Unit&lt;br style=&quot;font-size: 10px&quot;&gt;&lt;font size=&quot;1&quot;&gt;Similar to a company department&lt;/font&gt;&lt;br&gt;&lt;/font&gt;" style="whiteSpace=wrap;html=1;align=center;" vertex="1" parent="1">
                    <mxGeometry x="1340" y="-510" width="110" height="60" as="geometry"/>
                </mxCell>
                <mxCell id="96" value="&lt;font&gt;&lt;font style=&quot;font-size: 12px&quot;&gt;MSP&lt;/font&gt;&lt;br&gt;&lt;/font&gt;" style="whiteSpace=wrap;html=1;align=center;" vertex="1" parent="1">
                    <mxGeometry x="710" y="250" width="70" height="40" as="geometry"/>
                </mxCell>
                <mxCell id="97" value="" style="endArrow=classic;html=1;fontColor=#001DBC;strokeColor=#001DBC;fillColor=#0050ef;dashed=1;exitX=0;exitY=0.291;exitDx=0;exitDy=0;exitPerimeter=0;" edge="1" parent="1" source="6" target="3">
                    <mxGeometry width="50" height="50" relative="1" as="geometry">
                        <mxPoint x="790" y="-599.9958823529412" as="sourcePoint"/>
                        <mxPoint x="640" y="-529.4076470588234" as="targetPoint"/>
                        <Array as="points"/>
                    </mxGeometry>
                </mxCell>
                <mxCell id="98" value="4.2. Peer updates ledger&lt;br&gt;using transaction blocks" style="edgeLabel;html=1;align=center;verticalAlign=middle;resizable=0;points=[];fontColor=#001DBC;" vertex="1" connectable="0" parent="97">
                    <mxGeometry x="-0.1679" y="3" relative="1" as="geometry">
                        <mxPoint as="offset"/>
                    </mxGeometry>
                </mxCell>
                <mxCell id="99" value="" style="endArrow=classic;html=1;fontColor=#001DBC;strokeColor=#001DBC;fillColor=#0050ef;dashed=1;curved=1;entryX=1;entryY=0.75;entryDx=0;entryDy=0;" edge="1" parent="1" source="3" target="7">
                    <mxGeometry width="50" height="50" relative="1" as="geometry">
                        <mxPoint x="240" y="-596.8799999999999" as="sourcePoint"/>
                        <mxPoint x="350" y="-535.6266666666666" as="targetPoint"/>
                        <Array as="points">
                            <mxPoint x="110" y="-400"/>
                        </Array>
                    </mxGeometry>
                </mxCell>
                <mxCell id="100" value="5. Ledger update event" style="edgeLabel;html=1;align=center;verticalAlign=middle;resizable=0;points=[];fontColor=#001DBC;" vertex="1" connectable="0" parent="99">
                    <mxGeometry x="-0.1679" y="3" relative="1" as="geometry">
                        <mxPoint x="-47.43" y="-13.760000000000002" as="offset"/>
                    </mxGeometry>
                </mxCell>
                <mxCell id="101" value="" style="endArrow=classic;html=1;strokeColor=#001DBC;fillColor=#0050ef;fontColor=#001DBC;curved=1;entryX=1.011;entryY=0.888;entryDx=0;entryDy=0;entryPerimeter=0;exitX=-0.005;exitY=0.301;exitDx=0;exitDy=0;exitPerimeter=0;dashed=1;" edge="1" parent="1" source="9" target="7">
                    <mxGeometry width="50" height="50" relative="1" as="geometry">
                        <mxPoint x="260" y="-520" as="sourcePoint"/>
                        <mxPoint x="-80.24000000000001" y="-511.68000000000006" as="targetPoint"/>
                    </mxGeometry>
                </mxCell>
                <mxCell id="112" value="&lt;span style=&quot;color: rgb(0 , 29 , 188)&quot;&gt;5. Ledger update event&lt;/span&gt;" style="edgeLabel;html=1;align=center;verticalAlign=middle;resizable=0;points=[];fontColor=none;" vertex="1" connectable="0" parent="101">
                    <mxGeometry x="0.0932" y="-2" relative="1" as="geometry">
                        <mxPoint as="offset"/>
                    </mxGeometry>
                </mxCell>
                <mxCell id="103" value="World State&lt;br&gt;&lt;font style=&quot;font-size: 10px&quot;&gt;{Key, Value}, Version&lt;br&gt;LevelDB or CouchDB&lt;br&gt;One namespace per Smart Contract. Only valid transactions contribute to the world state&lt;br&gt;&lt;/font&gt;" style="shape=cylinder3;whiteSpace=wrap;html=1;boundedLbl=1;backgroundOutline=1;size=15;fontColor=none;" vertex="1" parent="1">
                    <mxGeometry x="30" y="-590" width="100" height="150" as="geometry"/>
                </mxCell>
                <mxCell id="104" value="Transaction Log&lt;br&gt;&lt;font style=&quot;font-size: 10px&quot;&gt;(Blockchain of interlinked blocks (sequence of valid or invalid transactions (queries or updates)))&lt;/font&gt;" style="shape=ext;rounded=1;html=1;whiteSpace=wrap;double=1;fontColor=none;" vertex="1" parent="1">
                    <mxGeometry x="140" y="-590" width="100" height="145" as="geometry"/>
                </mxCell>
                <mxCell id="108" value="&lt;font&gt;&lt;font&gt;&lt;font style=&quot;font-size: 12px&quot;&gt;Endorsement Policy&lt;/font&gt;&lt;br&gt;&lt;/font&gt;&lt;span style=&quot;font-size: 10px&quot;&gt;Contains which organizations must sign a transaction in order to be valid&lt;/span&gt;&lt;br&gt;&lt;/font&gt;" style="whiteSpace=wrap;html=1;align=center;" vertex="1" parent="1">
                    <mxGeometry x="330" y="-842" width="130" height="104" as="geometry"/>
                </mxCell>
                <mxCell id="109" value="&lt;font&gt;&lt;font style=&quot;font-size: 12px&quot;&gt;Smart Contract 1.2&lt;/font&gt;&lt;br&gt;&lt;/font&gt;" style="whiteSpace=wrap;html=1;" vertex="1" parent="1">
                    <mxGeometry x="430" y="-680" width="70" height="220" as="geometry"/>
                </mxCell>
                <mxCell id="111" value="Smart Contract 1.2" style="whiteSpace=wrap;html=1;" vertex="1" parent="1">
                    <mxGeometry x="440" y="-230" width="100" height="50" as="geometry"/>
                </mxCell>
            </root>
        </mxGraphModel>
    </diagram>
</mxfile>